<svg version="1.1" xmlns="http://www.w3.org/2000/svg" xmlns:xlink="http://www.w3.org/1999/xlink" viewBox="0 0 172 172" width="172" height="172">
  <path d="M21.72575,17.91667l55.63842,42.269l-9.05508,-24.35233z" fill="#e27625"></path>
  <path d="M14.33333,114.66667l10.75,32.25l32.47217,-10.75l-15.52658,-21.73292z" fill="#e27625"></path>
  <path d="M54.87158,73.01042l-8.51042,16.57292l32.69792,0.89583l-3.13542,-36.72917z" fill="#e27625"></path>
  <path d="M57.55908,136.16667l18.02775,-7.16667l-16.23608,-14.33333z" fill="#e27625"></path>
  <path d="M57.55908,136.16667l17.243,10.30208l0.78475,-17.46875z" fill="#d7ccc8"></path>
  <path d="M57.5555,136.16667l1.79167,-21.5h-17.46875z" fill="#cc6228"></path>
  <path d="M77.71533,89.58333l-2.78425,17.3935l3.71233,19.1135l0.83133,-25.19083z" fill="#fb8c00"></path>
  <path d="M14.55908,39.41667l10.75,46.58333l29.84917,-10.01542l20.3175,-18.65125l-53.75,-39.41667z"
    fill="#763e1a"></path>
  <path
    d="M75.47575,104.8125l-28.66667,-15.22917l8.34558,-13.59875l-29.84917,10.01542l-10.97217,28.66667h45.01742l16.23608,14.33333l3.053,-2.90967z"
    fill="#fb8c00"></path>
  <path d="M59.35075,102.125l16.125,5.375l2.23958,-17.91667h-30.90625z" fill="#cc6228"></path>
  <path d="M75.47575,107.5l-16.125,-5.375l11.19792,-5.375z" fill="#212121"></path>
  <path d="M104.02058,35.83333l-9.05867,24.35233l55.642,-42.269z" fill="#e27625"></path>
  <path d="M130.30075,114.43375l-15.40833,21.73292l32.35392,10.75l10.75,-32.25z" fill="#e27625"></path>
  <path d="M96.07992,54.64583l-1.6125,36.14508l31.50108,-1.20758l-7.49633,-14.33333z" fill="#e27625"></path>
  <path d="M112.97892,114.66667l-16.11783,14.33333l18.02775,7.16667z" fill="#e27625"></path>
  <path d="M96.86108,129l0.6665,17.46875l17.36483,-10.30208z" fill="#d7ccc8"></path>
  <path d="M130.44767,114.66667h-17.46875l1.90992,21.5z" fill="#cc6228"></path>
  <path
    d="M98.19767,144.93508v-5.18508h-24.06567v5.18508l-16.57292,-8.76842l17.91667,14.33333h21.37817l18.0385,-14.33333z"
    fill="#bcaaa4"></path>
  <path d="M150.60392,17.91667l-53.62817,39.41667l20.19925,18.65125l29.96383,10.01542l10.63175,-46.58333z"
    fill="#763e1a"></path>
  <path
    d="M147.14242,86l-29.96742,-10.01542l8.34558,13.59875l-28.27967,16.39733l-2.62658,-16.39733l-1.75583,11.31617l0.83133,25.19083l0.00358,-0.02508l-0.00358,0.02508l3.17125,2.90967l16.11783,-14.33333h45.01742z"
    fill="#fb8c00"></path>
  <path
    d="M68.30908,35.83333l7.16667,21.5l2.3865,33.45758l0.72025,10.16233l0.05733,25.13708h7.52142v-0.16125l0.00717,0.16125h7.52142l0.05733,-25.13708l0.72025,-10.16233l2.50833,-33.45758l7.16667,-21.5z"
    fill="#fb8c00"></path>
  <path d="M96.97575,129l-3.36833,-3.58333h-14.88517l-3.2465,3.58333l-1.34375,10.75h24.06567z" fill="#212121">
  </path>
  <path d="M125.52058,89.58333h-30.90625l2.23958,17.91667l16.125,-5.375z" fill="#cc6228"></path>
  <path d="M101.90283,96.75l11.07967,5.375l-16.125,5.375z" fill="#212121"></path>
</svg>