<svg width="300" height="300" viewBox="0 0 300 300" fill="none" xmlns="http://www.w3.org/2000/svg">
	<path
		d="M213.529 293.013C208.547 285.761 203.587 278.486 198.547 271.267C196.062 267.703 193.44 264.242 190.398 260.088C223.233 245.378 245.376 221.272 255.398 186.757C259.7 171.934 260.642 156.817 258.043 140.076C220.736 183.295 184.27 225.551 147.406 268.248C111.472 225.21 75.8455 182.535 39.3107 138.782C35.1794 165.533 39.6512 189.243 52.0905 211.511C64.4958 233.711 82.8256 249.419 106.705 259.884C98.4542 270.461 90.6002 280.529 82.7916 290.55C2.63974 253.119 -28.3677 143.549 30.6395 65.8484C69.7847 111.792 108.828 157.611 148.257 203.884C188.276 157.305 228 111.077 268.076 64.441C279.414 78.8892 287.563 94.3022 292.841 111.157C315.245 182.83 283.773 257.159 216.48 291.833C215.833 292.162 215.254 292.627 214.641 293.025C214.29 293.013 213.904 293.013 213.529 293.013Z" />
	<path
		d="M161.321 7C167.756 8.11227 174.237 9.06562 180.638 10.3708C205.937 15.5463 228.409 26.5896 248.101 43.2964C249.236 44.2498 250.507 45.0443 252.028 46.1452C242.789 56.6891 234.232 66.4499 225.333 76.6079C191 46.9511 152.513 38.836 108.783 53.4658C115.048 61.4106 120.53 68.8788 126.659 75.7567C127.964 77.2208 131.709 77.2548 134.161 76.8576C149.438 74.406 164.26 75.6545 178.663 81.3861C179.855 81.8628 180.956 82.5325 182.556 83.3383C174.543 93.7801 166.757 103.927 158.631 114.516C163.852 121.11 169.061 127.704 174.464 134.537C165.532 144.706 156.838 154.615 147.576 165.17C114.991 125.287 82.6672 85.7218 49.8892 45.6005C53.7481 42.4906 57.3913 39.2786 61.307 36.4298C83.6319 20.1657 108.499 10.5638 136.056 7.99878C137.316 7.88528 138.531 7.34049 139.768 7C146.941 7 154.136 7 161.321 7Z" />
</svg>